<svg width="61" height="32" viewBox="0 0 61 32" fill="none" xmlns="http://www.w3.org/2000/svg">
<path d="M44.3822 0H5.79273C4.80561 0 4.00538 0.800224 4.00538 1.78735C4.00538 2.77447 4.80561 3.5747 5.79273 3.5747H44.2961C50.8746 3.96217 56.0111 9.41006 56.0111 16C56.0111 22.5899 50.8746 28.0378 44.2961 28.4253H20.0485C19.0613 28.4253 18.2611 29.2255 18.2611 30.2127C18.2611 31.1998 19.0613 32 20.0485 32H44.3392C53.1757 32 60.3392 24.8366 60.3392 16C60.3392 7.16344 53.1757 0 44.3392 0H44.3822ZM44.3822 7.10633C40.7899 7.08889 37.5416 9.23942 36.1548 12.5533C34.768 15.8672 35.5164 19.6903 38.0504 22.2366C40.5844 24.783 44.4038 25.55 47.7244 24.1793C51.045 22.8086 53.2113 19.5708 53.2113 15.9785C53.2113 11.1117 49.249 7.10633 44.3392 7.10633H44.3822ZM32.1938 21.319H11.9515C10.9644 21.319 10.1642 22.1192 10.1642 23.1063C10.1642 24.0935 10.9644 24.8937 11.9515 24.8937H32.1938C33.1809 24.8937 33.9812 24.0935 33.9812 23.1063C33.9812 22.1192 33.1809 21.319 32.1938 21.319ZM44.3822 10.7241C46.3968 10.5426 48.341 11.5149 49.4043 13.2355C50.4677 14.9562 50.4677 17.1299 49.4043 18.8506C48.341 20.5713 46.3968 21.5435 44.3822 21.362C41.6296 21.1141 39.5208 18.8069 39.5208 16.0431C39.5208 13.2792 41.6296 10.972 44.3822 10.7241ZM30.1696 14.1696H1.78735C0.800224 14.1696 0 14.9698 0 15.9569C0 16.9441 0.800224 17.7443 1.78735 17.7443H30.2127C31.1602 17.7443 31.9354 16.926 31.9354 15.9354C31.912 14.977 31.1282 14.2124 30.1696 14.2127V14.1696ZM32.1938 7.06326H13.9758C12.9886 7.06326 12.1884 7.86348 12.1884 8.85061C12.1884 9.83773 12.9886 10.638 13.9758 10.638H32.1938C33.1809 10.638 33.9812 9.83773 33.9812 8.85061C33.9812 7.86348 33.1809 7.06326 32.1938 7.06326Z" fill="#4D6BE8"/>
</svg>
