<svg width="33" height="28" viewBox="0 0 33 28" fill="none" xmlns="http://www.w3.org/2000/svg">
<path fill-rule="evenodd" clip-rule="evenodd" d="M9.78125 8.02142C9.78125 4.69589 12.4771 2 15.8027 2C19.1282 2 21.8241 4.69589 21.8241 8.02142C21.8241 11.347 19.1282 14.0428 15.8027 14.0428C12.4771 14.0428 9.78125 11.347 9.78125 8.02142ZM15.8027 4.47689C13.8451 4.47689 12.2581 6.06383 12.2581 8.02142C12.2581 9.97901 13.8451 11.5659 15.8027 11.5659C17.7603 11.5659 19.3472 9.97901 19.3472 8.02142C19.3472 6.06383 17.7603 4.47689 15.8027 4.47689Z" fill="#F5A938"/>
<path fill-rule="evenodd" clip-rule="evenodd" d="M15.8044 15.2386C11.3027 15.2386 7.47689 19.436 7.47689 24.7618C7.47689 25.4458 6.92242 26.0003 6.23845 26.0003C5.55447 26.0003 5 25.4458 5 24.7618C5 18.3718 9.64959 12.7617 15.8044 12.7617C18.3887 12.7617 20.7685 13.7847 22.6237 15.4639C23.1308 15.9228 23.1698 16.706 22.7109 17.2131C22.2519 17.7202 21.4687 17.7593 20.9616 17.3003C19.5166 15.9925 17.7161 15.2386 15.8044 15.2386ZM28.5825 18.6237C29.0601 19.1133 29.0504 19.8974 28.5608 20.375L23.6418 25.1739C23.2951 25.5965 22.8276 25.8853 22.2706 25.9595C21.7175 26.0333 21.2223 25.8761 20.8505 25.6902C20.7111 25.6205 20.5861 25.5251 20.4821 25.409L18.4142 23.1016C17.9577 22.5922 18.0006 21.8092 18.5099 21.3527C19.0193 20.8963 19.8023 20.9391 20.2588 21.4485L21.9636 23.3508L26.8312 18.6021C27.3207 18.1244 28.1048 18.1341 28.5825 18.6237Z" fill="#F5A938"/>
</svg>
