<svg width="57" height="30" viewBox="0 0 57 30" fill="none" xmlns="http://www.w3.org/2000/svg">
<path d="M41.6083 0H5.43069C4.50526 0 3.75505 0.75021 3.75505 1.67564C3.75505 2.60107 4.50526 3.35128 5.43069 3.35128H41.5276C47.695 3.71454 52.5104 8.82193 52.5104 15C52.5104 21.1781 47.695 26.2855 41.5276 26.6487H18.7954C17.87 26.6487 17.1198 27.3989 17.1198 28.3244C17.1198 29.2498 17.87 30 18.7954 30H41.568C49.8522 30 56.568 23.2843 56.568 15C56.568 6.71573 49.8522 0 41.568 0H41.6083ZM41.6083 6.66218C38.2406 6.64583 35.1953 8.66196 33.8951 11.7687C32.595 14.8755 33.2966 18.4596 35.6722 20.8468C38.0478 23.234 41.6286 23.9531 44.7416 22.6681C47.8546 21.3831 49.8856 18.3476 49.8856 14.9798C49.8856 10.4172 46.1709 6.66218 41.568 6.66218H41.6083ZM30.1817 19.9865H11.2046C10.2791 19.9865 9.52894 20.7368 9.52894 21.6622C9.52894 22.5876 10.2791 23.3378 11.2046 23.3378H30.1817C31.1071 23.3378 31.8573 22.5876 31.8573 21.6622C31.8573 20.7368 31.1071 19.9865 30.1817 19.9865ZM41.6083 10.0538C43.497 9.88372 45.3197 10.7952 46.3166 12.4083C47.3135 14.0214 47.3135 16.0593 46.3166 17.6724C45.3197 19.2856 43.497 20.197 41.6083 20.0269C39.0277 19.7945 37.0508 17.6315 37.0508 15.0404C37.0508 12.4493 39.0277 10.2863 41.6083 10.0538ZM28.284 13.284H1.67564C0.75021 13.284 0 14.0342 0 14.9596C0 15.885 0.75021 16.6353 1.67564 16.6353H28.3244C29.2127 16.6353 29.9394 15.8681 29.9394 14.9394C29.9175 14.041 29.1827 13.3241 28.284 13.3244V13.284ZM30.1817 6.6218H13.1023C12.1769 6.6218 11.4266 7.37201 11.4266 8.29744C11.4266 9.22287 12.1769 9.97308 13.1023 9.97308H30.1817C31.1071 9.97308 31.8573 9.22287 31.8573 8.29744C31.8573 7.37201 31.1071 6.6218 30.1817 6.6218Z" fill="#34B57C"/>
</svg>
